Coordinates
version=1
nRows=32
nColumns=38
inDegrees=no

Units are S.I. units (second, meters, Newtons, ...)
If the header above contains a line with 'inDegrees', this indicates whether rotational values are in degrees (yes) or radians (no).

endheader
time	pelvis_tilt	pelvis_list	pelvis_rotation	pelvis_tx	pelvis_ty	pelvis_tz	hip_flexion_r	hip_adduction_r	hip_rotation_r	knee_angle_r	ankle_angle_r	subtalar_angle_r	mtp_angle_r	hip_flexion_l	hip_adduction_l	hip_rotation_l	knee_angle_l	ankle_angle_l	subtalar_angle_l	mtp_angle_l	lumbar_extension	lumbar_bending	lumbar_rotation	arm_flex_r	arm_add_r	arm_rot_r	elbow_flex_r	pro_sup_r	wrist_flex_r	wrist_dev_r	arm_flex_l	arm_add_l	arm_rot_l	elbow_flex_l	pro_sup_l	wrist_flex_l	wrist_dev_l
49.11	-2.97528	1.19216	-1.50868	0.68296	0.400763	1.05277	-0.523598	0.0566019	-0.249413	0	-0.508762	0	0	-0.447701	-0.158247	-0.378278	0.169071	-0.388044	0	0	-0.504276	0.114698	-0.10066	0.0495951	-0.288195	0.759266	0.266754	0.74516	0	0	-0.0282773	-0.136714	-0.19339	0.224356	1.5708	0	0
49.12	-2.97222	1.19002	-1.50826	0.682718	0.401168	1.05268	-0.523598	0.0573372	-0.25277	0	-0.508748	0	0	-0.450486	-0.159033	-0.378372	0.167958	-0.389737	0	0	-0.49691	0.116288	-0.133303	0.158751	-0.344032	1.5708	0.324845	0	0	0	-0.0452513	-0.129472	-0.276338	0.226191	1.5708	0	0
49.13	-2.96866	1.19071	-1.50912	0.682646	0.401616	1.05261	-0.523598	0.0574174	-0.253149	0	-0.50783	0	0	-0.450192	-0.159028	-0.377198	0.166852	-0.390914	0	0	-0.497148	0.116241	-0.133689	0.160927	-0.34378	1.5708	0.324994	0	0	0	-0.0456738	-0.129715	-0.276737	0.22608	1.5708	0	0
49.14	-2.96621	1.19116	-1.50997	0.682601	0.401951	1.05254	-0.523598	0.0570973	-0.251675	0	-0.507327	0	0	-0.450251	-0.158913	-0.377445	0.165848	-0.391724	0	0	-0.4982	0.116371	-0.13285	0.163555	-0.34398	1.5708	0.325449	0	0	0	-0.0455686	-0.129677	-0.277037	0.225941	1.5708	0	0
49.15	-2.96318	1.19167	-1.51072	0.682551	0.402412	1.05246	-0.523598	0.0570133	-0.252032	0	-0.506745	0	0	-0.45039	-0.158835	-0.376663	0.164514	-0.392265	0	0	-0.498763	0.116501	-0.132637	0.165867	-0.344113	1.5708	0.325845	0	0	0	-0.0456483	-0.129807	-0.277268	0.225651	1.5708	0	0
49.16	-2.95986	1.19235	-1.5113	0.682505	0.403032	1.05234	-0.523598	0.0571915	-0.2531	0	-0.507087	0	0	-0.450236	-0.15908	-0.376268	0.163881	-0.39198	0	0	-0.498532	0.116655	-0.13212	0.167327	-0.344292	1.5708	0.326126	0	0	0	-0.0455216	-0.130188	-0.275606	0.224651	1.5708	0	0
49.17	-2.95628	1.19299	-1.51197	0.682446	0.403651	1.05223	-0.523598	0.0573313	-0.254824	0	-0.506613	0	0	-0.450522	-0.158977	-0.37457	0.16204	-0.392358	0	0	-0.498506	0.116848	-0.132697	0.169427	-0.344407	1.5708	0.326264	0	0	0	-0.0460857	-0.130347	-0.276347	0.224465	1.5708	0	0
49.18	-2.95298	1.19373	-1.51248	0.682407	0.404247	1.05209	-0.523598	0.0574869	-0.256191	0	-0.506038	0	0	-0.450511	-0.159026	-0.373259	0.160496	-0.392861	0	0	-0.49851	0.117076	-0.133212	0.171694	-0.344562	1.5708	0.326353	0	0	0	-0.0465661	-0.130459	-0.277137	0.224205	1.5708	0	0
49.19	-2.93215	1.20754	-1.53302	0.682719	0.405428	1.05016	-0.509095	0.0484304	-0.256068	0	-0.4971	0	0	-0.43561	-0.151467	-0.371737	0.162772	-0.388415	0	0	-0.483007	0.108468	-0.133979	0.17089	-0.343178	1.5708	0.325321	0	0	0	-0.0496518	-0.131394	-0.279481	0.223874	1.5708	0	0
49.2	-2.95165	1.19732	-1.5094	0.68244	0.405063	1.05183	-0.518594	0.0589851	-0.253394	0	-0.499059	0	0	-0.445998	-0.160987	-0.370873	0.161561	-0.39083	0	0	-0.498546	0.119236	-0.131875	0.177331	-0.345232	1.5708	0.325854	0	0	0	-0.0456447	-0.129979	-0.279427	0.223654	1.5708	0	0
49.21	-2.93489	1.20542	-1.52464	0.682999	0.4066	1.05037	-0.510507	0.0536056	-0.25665	0	-0.496736	0	0	-0.43808	-0.156568	-0.370761	0.162575	-0.389837	0	0	-0.487985	0.112514	-0.133528	0.176552	-0.3438	1.5708	0.325763	0	0	0	-0.0497448	-0.131711	-0.280305	0.224437	1.5708	0	0
49.22	-2.93557	1.20347	-1.52106	0.682956	0.407179	1.05061	-0.512728	0.0557089	-0.256201	0	-0.496628	0	0	-0.440238	-0.158582	-0.370077	0.162325	-0.390695	0	0	-0.491657	0.114625	-0.133629	0.179821	-0.344599	1.5708	0.326137	0	0	0	-0.049721	-0.131561	-0.280231	0.224691	1.5708	0	0
49.23	-2.93569	1.2028	-1.51845	0.682948	0.407732	1.05075	-0.513208	0.0572587	-0.255124	0	-0.496164	0	0	-0.440607	-0.160312	-0.369579	0.163078	-0.390852	0	0	-0.494057	0.116271	-0.133499	0.183087	-0.345365	1.5708	0.326322	0	0	0	-0.0496219	-0.131389	-0.280093	0.22474	1.5708	0	0
49.24	-2.93465	1.20306	-1.51635	0.682965	0.408223	1.05081	-0.512272	0.0586044	-0.255044	0	-0.495449	0	0	-0.439074	-0.162141	-0.368514	0.165246	-0.39074	0	0	-0.495626	0.117657	-0.133971	0.186391	-0.345914	1.5708	0.326302	0	0	0	-0.0493387	-0.131393	-0.279894	0.224712	1.5708	0	0
49.25	-2.93346	1.20408	-1.51484	0.683056	0.408673	1.0508	-0.510075	0.0596197	-0.255428	0	-0.494479	0	0	-0.4362	-0.163896	-0.36809	0.168366	-0.390531	0	0	-0.496631	0.118799	-0.134041	0.189812	-0.346486	1.5708	0.326256	0	0	0	-0.0489951	-0.131357	-0.27982	0.225034	1.5708	0	0
49.26	-2.93256	1.20538	-1.51374	0.683223	0.409106	1.05075	-0.507307	0.0604309	-0.255924	0	-0.493333	0	0	-0.433008	-0.165562	-0.368936	0.171794	-0.390246	0	0	-0.497513	0.119861	-0.133467	0.193383	-0.347286	1.5708	0.326577	0	0	0	-0.0486109	-0.131191	-0.279838	0.225484	1.5708	0	0
49.27	-2.93209	1.20588	-1.51321	0.683297	0.40989	1.05068	-0.505583	0.060766	-0.25638	0	-0.492177	0	0	-0.431542	-0.167082	-0.372607	0.175028	-0.389708	0	0	-0.498124	0.120827	-0.132574	0.196365	-0.34844	1.5708	0.32699	0	0	0	-0.0493626	-0.130624	-0.279908	0.225788	1.5708	0	0
49.28	-2.92939	1.20844	-1.51278	0.683521	0.410218	1.05052	-0.500953	0.0612238	-0.255908	0	-0.490704	0	0	-0.425697	-0.168668	-0.370342	0.179973	-0.388978	0	0	-0.497992	0.12147	-0.133195	0.199975	-0.348688	1.5708	0.326824	0	0	0	-0.0488722	-0.130847	-0.279501	0.226262	1.5708	0	0
49.29	-2.92632	1.21079	-1.51279	0.683779	0.41057	1.05038	-0.496469	0.0613693	-0.255067	0	-0.489088	0	0	-0.4203	-0.170005	-0.367758	0.184486	-0.388249	0	0	-0.498047	0.12193	-0.133776	0.203563	-0.348862	1.5708	0.326572	0	0	0	-0.048464	-0.131071	-0.279144	0.226904	1.5708	0	0
49.3	-2.92341	1.21264	-1.51333	0.684025	0.410932	1.0503	-0.4919	0.0609427	-0.254089	0	-0.486801	0	0	-0.415736	-0.17093	-0.36558	0.188543	-0.387484	0	0	-0.498514	0.12229	-0.133865	0.207242	-0.349157	1.5708	0.326204	0	0	0	-0.0480877	-0.131059	-0.278857	0.227477	1.5708	0	0
49.31	-2.91957	1.21301	-1.51487	0.684263	0.411288	1.05031	-0.489387	0.0602079	-0.253633	0.00080752	-0.492882	0	0	-0.414164	-0.170739	-0.361633	0.188898	-0.391924	0	0	-0.500409	0.122513	-0.134119	0.211199	-0.349658	1.5708	0.326386	0	0	0	-0.0477159	-0.130902	-0.279307	0.228124	1.5708	0	0
49.32	-2.92242	1.21574	-1.51008	0.684676	0.41097	1.05045	-0.480491	0.0611926	-0.249031	0.0122128	-0.490147	0	0	-0.406678	-0.173617	-0.357595	0.195449	-0.390906	0	0	-0.50319	0.125064	-0.132969	0.217204	-0.35005	1.5708	0.325855	0	0	0	-0.0453562	-0.130587	-0.278801	0.229207	1.5708	0	0
49.33	-2.91777	1.21916	-1.51295	0.684902	0.411529	1.05006	-0.472089	0.0591571	-0.252165	0.0222961	-0.485287	0	0	-0.399968	-0.174136	-0.358472	0.201692	-0.389236	0	0	-0.501689	0.124624	-0.133569	0.220767	-0.350607	1.5708	0.32606	0	0	0	-0.0462725	-0.130356	-0.278734	0.230381	1.5708	0	0
49.34	-2.91917	1.22251	-1.51145	0.685403	0.41138	1.04998	-0.461916	0.0585259	-0.249618	0.0339998	-0.480708	0	0	-0.392539	-0.175843	-0.357265	0.208111	-0.387736	0	0	-0.503408	0.125807	-0.131773	0.226711	-0.351104	1.5708	0.325739	0	0	0	-0.0449658	-0.129876	-0.278146	0.231642	1.5708	0	0
49.35	-2.92142	1.2268	-1.51052	0.685967	0.411176	1.04982	-0.448592	0.0569765	-0.245619	0.0510069	-0.472543	0	0	-0.384249	-0.177237	-0.357277	0.214894	-0.385583	0	0	-0.504686	0.126743	-0.128787	0.233073	-0.351978	1.5708	0.325749	0	0	0	-0.0435995	-0.129062	-0.277513	0.233	1.5708	0	0
49.36	-2.92288	1.23099	-1.51069	0.686566	0.410981	1.04964	-0.435224	0.0549656	-0.241501	0.0691355	-0.462302	0	0	-0.376046	-0.178178	-0.357308	0.22165	-0.383594	0	0	-0.505952	0.127328	-0.125863	0.23954	-0.352927	1.5708	0.326049	0	0	0	-0.0421386	-0.12818	-0.277449	0.234012	1.5708	0	0
49.37	-2.92389	1.23532	-1.51135	0.687187	0.410773	1.04944	-0.420776	0.0525778	-0.238559	0.0886335	-0.451301	0	0	-0.367534	-0.178938	-0.356986	0.228644	-0.381619	0	0	-0.507094	0.127789	-0.123209	0.24616	-0.353803	1.5708	0.32646	0	0	0	-0.0407097	-0.127225	-0.277769	0.234806	1.5708	0	0
49.38	-2.92482	1.23988	-1.51242	0.687837	0.410511	1.0492	-0.405776	0.0500589	-0.235988	0.107927	-0.440707	0	0	-0.358971	-0.17948	-0.356206	0.235323	-0.379471	0	0	-0.508193	0.128152	-0.120741	0.253163	-0.354532	1.5708	0.326766	0	0	0	-0.0395495	-0.126242	-0.277216	0.235343	1.5708	0	0
49.39	-2.92631	1.24494	-1.51365	0.688543	0.410168	1.04889	-0.390058	0.0473865	-0.232208	0.128027	-0.429099	0	0	-0.349887	-0.179883	-0.355313	0.242091	-0.37696	0	0	-0.509038	0.128507	-0.117902	0.260551	-0.355406	1.5708	0.327307	0	0	0	-0.0384	-0.125121	-0.276469	0.235791	1.5708	0	0
49.4	-2.92849	1.25046	-1.51465	0.689277	0.409755	1.04851	-0.373431	0.0448121	-0.228449	0.148121	-0.41843	0	0	-0.340266	-0.180247	-0.354132	0.248916	-0.374144	0	0	-0.509791	0.129112	-0.114579	0.268189	-0.356538	1.5708	0.328175	0	0	0	-0.037239	-0.123779	-0.27575	0.236773	1.5708	0	0
49.41	-2.93065	1.25734	-1.51584	0.690014	0.409311	1.04798	-0.354046	0.0418439	-0.225973	0.171321	-0.405261	0	0	-0.328738	-0.180635	-0.352952	0.256766	-0.36998	0	0	-0.509498	0.129723	-0.111189	0.275912	-0.357725	1.5708	0.329089	0	0	0	-0.0363856	-0.122322	-0.27473	0.23823	1.5708	0	0
49.42	-2.93191	1.26421	-1.51759	0.690736	0.40882	1.04742	-0.336028	0.0391267	-0.223286	0.191462	-0.393551	0	0	-0.316813	-0.180941	-0.35112	0.26509	-0.365836	0	0	-0.509306	0.130397	-0.10835	0.283852	-0.358841	1.5708	0.329937	0	0	0	-0.0355907	-0.120893	-0.273574	0.239618	1.5708	0	0
